<svg xmlns="http://www.w3.org/2000/svg" viewBox="0 0 256 256">
  <defs>
    <linearGradient id="grad1" x1="0%" y1="0%" x2="100%" y2="100%">
      <stop offset="0%" style="stop-color:#6366f1"/>
      <stop offset="50%" style="stop-color:#8b5cf6"/>
      <stop offset="100%" style="stop-color:#d946ef"/>
    </linearGradient>
    <linearGradient id="grad2" x1="0%" y1="0%" x2="100%" y2="100%">
      <stop offset="0%" style="stop-color:#d946ef"/>
      <stop offset="100%" style="stop-color:#6366f1"/>
    </linearGradient>
  </defs>
  
  <!-- Background circle -->
  <circle cx="128" cy="128" r="120" fill="url(#grad1)"/>
  
  <!-- Chain link 1 (left) -->
  <ellipse cx="90" cy="128" rx="40" ry="50" fill="none" stroke="white" stroke-width="16" stroke-linecap="round"/>
  
  <!-- Chain link 2 (right) -->
  <ellipse cx="166" cy="128" rx="40" ry="50" fill="none" stroke="white" stroke-width="16" stroke-linecap="round"/>
  
  <!-- Heart center -->
  <path d="M128 170 C128 170 100 145 100 125 C100 110 112 100 128 100 C144 100 156 110 156 125 C156 145 128 170 128 170 Z" fill="url(#grad2)" opacity="0.9"/>
  
  <!-- Sparkle -->
  <circle cx="128" cy="55" r="8" fill="white" opacity="0.9"/>
  <line x1="128" y1="40" x2="128" y2="25" stroke="white" stroke-width="3" stroke-linecap="round"/>
  <line x1="115" y1="50" x2="103" y2="40" stroke="white" stroke-width="3" stroke-linecap="round"/>
  <line x1="141" y1="50" x2="153" y2="40" stroke="white" stroke-width="3" stroke-linecap="round"/>
</svg>
